<?xml version="1.0" standalone="no"?>
<!DOCTYPE svg PUBLIC "-//W3C//DTD SVG 20010904//EN"
 "http://www.w3.org/TR/2001/REC-SVG-20010904/DTD/svg10.dtd">
<svg version="1.0" xmlns="http://www.w3.org/2000/svg"
 width="1416.000000pt" height="1416.000000pt" viewBox="0 0 1416.000000 1416.000000"
 preserveAspectRatio="xMidYMid meet">
<metadata>
Created by potrace 1.11, written by Peter Selinger 2001-2013
</metadata>
<g transform="translate(0.000000,1416.000000) scale(0.100000,-0.100000)"
fill="#000000" stroke="none">
<path d="M11788 10225 c-1 -1 -39 -6 -83 -9 -44 -4 -91 -9 -105 -11 -142 -22
-244 -43 -345 -71 -775 -221 -1303 -775 -1440 -1511 -3 -16 -7 -37 -10 -49
-25 -111 -25 -498 -1 -630 2 -11 7 -39 11 -64 24 -154 81 -331 156 -485 185
-380 508 -688 1034 -987 71 -40 456 -232 605 -302 270 -126 591 -289 715 -363
318 -190 524 -390 623 -605 38 -82 68 -178 77 -244 4 -27 9 -60 11 -74 6 -38
6 -189 -1 -245 -37 -310 -184 -555 -428 -717 -191 -128 -466 -200 -762 -201
-78 -1 -286 12 -295 18 -4 2 -29 7 -56 10 -27 4 -92 18 -144 31 -52 14 -102
26 -110 28 -127 33 -383 152 -530 247 -178 115 -368 284 -503 447 l-60 72 -46
-63 c-41 -56 -94 -128 -374 -507 -128 -174 -187 -258 -187 -267 0 -13 245
-260 305 -308 28 -22 55 -45 60 -51 14 -16 149 -113 220 -159 162 -103 267
-158 490 -254 151 -66 390 -131 620 -170 224 -38 320 -45 585 -46 232 0 349 7
500 31 19 3 50 7 67 9 18 3 54 10 80 16 27 6 59 13 73 15 100 19 301 87 439
148 103 45 293 152 299 168 2 4 8 8 13 8 6 0 45 26 87 59 276 210 484 486 615
816 34 85 82 238 92 294 7 38 14 72 21 106 32 147 41 592 15 725 -6 30 -13 71
-16 90 -5 30 -26 134 -30 150 -1 3 -5 19 -9 35 -42 158 -130 362 -219 505 -36
57 -112 166 -127 180 -3 3 -29 34 -59 70 -238 284 -624 558 -1161 822 -870
429 -879 433 -1030 526 -172 105 -360 267 -438 377 -100 142 -142 269 -147
440 -4 138 10 231 51 347 119 334 410 554 818 618 67 11 302 14 381 5 82 -9
131 -16 180 -25 28 -5 64 -12 81 -15 129 -21 372 -113 520 -198 159 -91 253
-164 398 -308 70 -71 131 -129 135 -129 3 0 24 27 46 59 50 74 390 551 460
646 87 118 85 105 29 161 -220 218 -456 388 -716 513 -110 53 -285 122 -373
146 -27 8 -75 21 -105 29 -110 31 -324 71 -435 82 -22 2 -62 6 -90 10 -52 6
-471 15 -477 9z"/>
<path d="M2639 10068 c0 -24 -1 -1256 -1 -2738 0 -2845 1 -2778 -44 -2959
-115 -461 -471 -715 -1004 -714 -356 1 -664 159 -940 483 -30 36 -65 76 -78
91 -12 14 -28 33 -35 43 -10 14 -36 -24 -185 -276 -96 -161 -178 -300 -183
-308 -5 -8 -34 -58 -65 -110 -31 -52 -65 -109 -75 -126 l-19 -31 113 -114
c188 -192 355 -314 568 -418 152 -73 324 -133 444 -155 17 -3 41 -8 55 -11 14
-3 41 -8 60 -11 19 -3 46 -7 60 -10 64 -12 211 -19 380 -18 238 0 337 10 535
51 104 21 319 85 380 112 260 117 414 221 580 388 214 217 364 489 450 821 34
130 46 201 71 422 4 30 7 1309 8 2843 l1 2787 -537 0 -538 0 -1 -42z"/>
<path d="M5230 6460 l0 -3650 118 0 c145 -1 3493 -1 3543 0 l37 0 0 485 c0
446 -1 485 -16 486 -10 1 -594 2 -1299 3 -705 0 -1285 4 -1289 8 -3 4 -7 1427
-7 3163 l1 3155 -544 0 -544 0 0 -3650z"/>
</g>
</svg>
