<?xml version="1.0" standalone="no"?>
<!DOCTYPE svg PUBLIC "-//W3C//DTD SVG 20010904//EN"
 "http://www.w3.org/TR/2001/REC-SVG-20010904/DTD/svg10.dtd">
<svg version="1.0" xmlns="http://www.w3.org/2000/svg"
 width="520.000000pt" height="520.000000pt" viewBox="0 0 520.000000 520.000000"
 preserveAspectRatio="xMidYMid meet">
<metadata>
Created by potrace 1.11, written by Peter Selinger 2001-2013
</metadata>
<g transform="translate(0.000000,520.000000) scale(0.100000,-0.100000)"
fill="#000000" stroke="none">
<path d="M4368 4015 c-2 -2 -34 -5 -73 -8 -287 -23 -514 -167 -629 -400 -54
-109 -74 -198 -74 -327 0 -209 62 -361 210 -509 90 -90 191 -154 458 -287 353
-176 459 -253 527 -381 136 -253 6 -571 -262 -642 -270 -71 -572 17 -788 231
-27 26 -50 48 -52 48 -2 0 -13 -15 -24 -33 -11 -18 -29 -44 -41 -56 -11 -13
-20 -27 -20 -31 0 -3 -8 -15 -17 -26 -10 -10 -31 -39 -48 -63 l-29 -43 68 -65
c205 -194 469 -287 791 -278 162 4 179 7 300 46 218 70 379 216 456 414 16 40
31 85 33 101 3 16 10 43 15 60 17 58 5 291 -19 374 -34 120 -94 221 -185 314
-106 109 -231 190 -503 326 -122 62 -255 133 -295 160 -136 88 -215 189 -233
295 -11 65 -10 77 3 148 38 211 223 341 470 332 110 -4 138 -9 241 -44 99 -35
175 -79 250 -147 l56 -50 49 70 c26 39 65 95 84 124 l36 53 -34 35 c-42 44
-176 134 -244 164 -78 34 -160 59 -240 75 -53 10 -231 25 -237 20z"/>
<path d="M1009 3962 c0 -4 -2 -493 -3 -1087 -2 -1004 -4 -1084 -20 -1135 -41
-126 -104 -208 -195 -252 -25 -12 -48 -23 -51 -24 -3 0 -25 -6 -49 -13 -62
-18 -174 -16 -250 4 -77 20 -173 79 -233 143 -40 43 -68 56 -68 32 0 -5 -29
-59 -65 -120 -36 -61 -65 -114 -65 -116 0 -8 59 -64 105 -100 143 -112 289
-155 510 -149 318 7 538 144 647 401 14 33 31 85 37 115 6 30 14 65 17 79 7
28 13 2198 6 2217 -3 9 -46 13 -163 12 -87 0 -159 -3 -160 -7z"/>
<path d="M1922 2580 l0 -1390 669 0 669 0 0 148 0 148 -502 0 -503 0 -1 1229
c-1 677 -2 1235 -3 1242 -1 9 -44 12 -165 12 l-164 1 0 -1390z"/>
</g>
</svg>
