<svg version="1" xmlns="http://www.w3.org/2000/svg" width="1385.333" height="1385.333" viewBox="0 0 1039.000000 1039.000000"><path d="M866.5 240.7c-61.2 3.6-110.7 34.3-133.5 82.7-5.9 12.5-8.3 19.5-11.2 32.7-2.9 13.7-3.2 44.3-.5 58.6 7.6 40.5 28.5 70.2 68.2 96.7 18.1 12.2 26.1 16.6 66.3 36.2 54.2 26.6 67.9 35 85.7 52.9 15.4 15.4 22.1 27.2 26.1 45.9 1.8 8.4 2 26.8.4 35.7-5.4 30.9-24.8 54.6-54.1 65.9-14 5.4-26.2 7.3-46.4 7.3-15.7.1-19.6-.3-30.6-2.6-33.4-7-62.4-22.7-87.1-46.9-8.9-8.8-11.3-10.7-12.3-9.6-.7.7-8.7 11.8-17.9 24.5-12.5 17.5-16.6 23.8-16.1 25.3.8 2.5 16.8 17.6 26.5 25 35.8 27.3 78.3 41.7 128.5 43.7 98.2 3.8 166.7-47.6 177-132.7 5.2-42-4.7-83.1-27.1-113.8-7.9-10.7-25.8-28.3-38.7-37.8-16.9-12.6-34-22.3-77.2-44-22-11-45-23-51-26.6-30.6-18.2-46.3-35.7-52.6-58.5-3-10.6-3-28.3 0-39.8 9-34.6 38.1-57.7 77.1-61.4 8.7-.8 29.9 0 37.5 1.4 32.9 6.3 58.2 18.6 78.8 38.4 5.1 4.9 9.1 8.1 9.6 7.5.5-.5 8.3-11.6 17.5-24.8l16.7-23.9-3.3-3.4c-10-10.5-30.4-25-45.8-32.8-32.6-16.3-72.2-24.1-110.5-21.8zM202.7 249.7c-.4.3-.7 96.1-.7 212.7 0 230.3.2 220.5-5.5 237.9-6.5 19.9-18.5 35-35.6 44.6-15.4 8.6-39.3 12.8-58.4 10.1-24-3.3-41.8-12.8-60.6-32.2l-9.7-9.9-14.3 24.8C10 751.3 3.4 763 3.2 763.6c-.4 1.7 13.7 15.5 23.7 22.9 35.3 26.6 88.9 35.4 139.1 22.9 51.1-12.7 85.4-48 97.1-99.9 5-22.2 4.9-17 4.9-246.2V249h-32.3c-17.8 0-32.7.3-33 .7zM385.7 249.7c-.4.3-.7 125.4-.7 278V805h268v-59H452V249h-32.8c-18.1 0-33.2.3-33.5.7z"/></svg>